#!OML:ASF H:\ManfredETheater\Project 1\Capture day 1\Session 1\subject.ASF
:FULLY-SPECIFIED
:DEGREES
47
root 12.8272 15.2814 20.818 -171.867 -19.0135 -183.139
lowerback 20.0367 -3.24647 2.09423
upperback 1.59427 -3.88032 4.91823
thorax -9.26005 -2.04771 5.31342
lowerneck -18.9666 3.39799 1.40519
upperneck 2.10595 4.35578 -9.8717
head 3.93355 1.3018 -2.94132
rclavicle -1.16885e-013 7.4743e-014
rhumerus -46.6922 -10.9079 -71.6664
rradius 68.0285
rwrist -7.98102
rhand -27.2839 7.78065
rfingers 7.12502
rthumb -0.694251 -22.198
lclavicle -1.16885e-013 7.4743e-014
lhumerus -35.294 -14.1545 91.6578
lradius 91.4971
lwrist 8.57594
lhand -28.8612 -19.8642
lfingers 7.12502
lthumb -2.21767 10.104
rfemur -58.0506 3.85614 16.333
rtibia 59.3416
rfoot -5.88959 -2.84195
rtoes -17.9048
lfemur -6.53531 4.34818 -16.5361
ltibia 97.7793
lfoot 6.11716 -13.618
ltoes -7.7479
48
root 12.7173 15.3512 20.4205 -172.977 -18.495 -181.841
lowerback 20.6597 -2.98095 3.1996
upperback 1.6053 -3.27349 5.08964
thorax -9.67942 -1.81178 4.76417
lowerneck -19.2087 3.27495 1.58313
upperneck 2.77809 4.25029 -9.82707
head 4.17473 1.24675 -2.96407
rclavicle -4.85035e-014 -3.33958e-014
rhumerus -40.8511 -9.23448 -74.402
rradius 68.5903
rwrist -6.77217
rhand -26.4419 7.78872
rfingers 7.12502
rthumb 0.118917 -22.191
lclavicle -4.85035e-014 -3.33958e-014
lhumerus -34.0922 -13.4543 89.2739
lradius 90.8642
lwrist 9.17036
lhand -28.8636 -20.1931
lfingers 7.12502
lthumb -2.21993 9.77506
rfemur -55.8657 4.35181 18.1851
rtibia 60.0349
rfoot -7.66349 -3.20872
rtoes -17.5362
lfemur -10.4248 6.36777 -13.8542
ltibia 104.415
lfoot 5.15504 -15.6
ltoes -7.85559
49
root 12.6151 15.4247 20.0378 -173.817 -18.0837 -180.719
lowerback 21.1154 -2.72499 4.13907
upperback 1.54709 -2.69902 5.25315
thorax -10.0567 -1.58607 4.29032
lowerneck -19.4915 3.07314 1.61512
upperneck 3.60875 4.08197 -9.67815
head 4.46215 1.16343 -2.93736
rclavicle -1.35174e-014 1.1291e-013
rhumerus -35.0094 -6.9559 -76.7158
rradius 69.4248
rwrist -5.46651
rhand -25.5131 7.79982
rfingers 7.12502
rthumb 1.01599 -22.1775
lclavicle -1.35174e-014 1.1291e-013
lhumerus -32.8858 -13.0816 86.6851
lradius 91.0868
lwrist 9.55786
lhand -28.8376 -20.5155
lfingers 7.12502
lthumb -2.19485 9.45297
rfemur -53.7614 4.65285 19.8308
rtibia 60.4003
rfoot -9.34461 -3.55248
rtoes -17.4533
lfemur -14.8811 8.53802 -11.1654
ltibia 110.841
lfoot 4.21213 -17.5017
ltoes -8.3136
50
root 12.5201 15.5001 19.6689 -174.415 -17.7569 -179.785
lowerback 21.4315 -2.44351 4.87762
upperback 1.42651 -2.12325 5.40713
thorax -10.4065 -1.35122 3.90549
lowerneck -19.7855 2.78804 1.49421
upperneck 4.55138 3.83791 -9.41549
head 4.77728 1.04728 -2.85892
rclavicle 5.52621e-014 -2.38542e-014
rhumerus -29.2245 -4.09104 -78.4074
rradius 70.4742
rwrist -4.26669
rhand -24.6519 7.87714
rfingers 7.12502
rthumb 1.84772 -22.0946
lclavicle 5.52621e-014 -2.38542e-014
lhumerus -31.5744 -13.0204 83.8651
lradius 92.1081
lwrist 9.79592
lhand -28.7645 -20.7879
lfingers 7.12502
lthumb -2.12423 9.18128
rfemur -51.8107 4.82807 21.2381
rtibia 60.612
rfoot -10.9755 -3.83961
rtoes -17.6727
lfemur -19.8404 10.9647 -8.54958
ltibia 116.959
lfoot 3.20615 -19.2865
ltoes -9.11136
51
root 12.4304 15.578 19.311 -174.808 -17.4788 -179.028
lowerback 21.6359 -2.10818 5.40991
upperback 1.25046 -1.51365 5.5462
thorax -10.7432 -1.09037 3.60051
lowerneck -20.0339 2.42379 1.23598
upperneck 5.5373 3.51059 -9.04284
head 5.09192 0.897266 -2.73345
rclavicle 1.74931e-014 -3.81667e-014
rhumerus -23.5763 -0.738928 -79.2692
rradius 71.7477
rwrist -3.27329
rhand -23.897 8.09886
rfingers 7.12502
rthumb 2.57684 -21.8653
lclavicle 1.74931e-014 -3.81667e-014
lhumerus -30.0149 -13.196 80.766
lradius 93.7613
lwrist 9.92832
lhand -28.6202 -20.9156
lfingers 7.12502
lthumb -1.98486 9.05489
rfemur -49.9693 4.93334 22.418
rtibia 60.6134
rfoot -12.4381 -4.10637
rtoes -17.892
lfemur -25.2489 13.7368 -6.1127
ltibia 122.611
lfoot 2.13822 -20.9211
ltoes -10.1893
52
root 12.3441 15.6606 18.9604 -175.053 -17.2482 -178.414
lowerback 21.7583 -1.71729 5.78242
upperback 1.0302 -0.860557 5.66193
thorax -11.0766 -0.801026 3.33907
lowerneck -20.1723 1.99493 0.874567
upperneck 6.48606 3.10176 -8.57589
head 5.37392 0.716794 -2.57091
rclavicle 4.8901e-014 -8.11041e-014
rhumerus -18.1155 2.9307 -79.141
rradius 73.2646
rwrist -2.59094
rhand -23.3163 8.45618
rfingers 7.12502
rthumb 3.13762 -21.5005
lclavicle 4.8901e-014 -8.11041e-014
lhumerus -28.0505 -13.4872 77.3366
lradius 95.7888
lwrist 9.98634
lhand -28.4372 -20.8437
lfingers 7.12502
lthumb -1.80813 9.12839
rfemur -48.1648 4.97584 23.4138
rtibia 60.4014
rfoot -13.7358 -4.34571
rtoes -18.0752
lfemur -31.0478 16.8223 -4.00149
ltibia 127.662
lfoot 1.01359 -22.3684
ltoes -11.4531
53
root 12.2591 15.7505 18.615 -175.196 -16.9959 -177.918
lowerback 21.8329 -1.25387 6.03128
upperback 0.782881 -0.135961 5.73435
thorax -11.4099 -0.472373 3.07081
lowerneck -20.1961 1.52015 0.444502
upperneck 7.36441 2.62389 -8.03248
head 5.6153 0.51155 -2.38067
rclavicle -1.59028e-014 -7.79236e-014
rhumerus -12.8639 6.65457 -77.9301
rradius 75.048
rwrist -2.20293
rhand -22.9545 8.90146
rfingers 7.12502
rthumb 3.48705 -21.0498
lclavicle -1.59028e-014 -7.79236e-014
lhumerus -25.5375 -13.744 73.542
lradius 97.8933
lwrist 10.0006
lhand -28.2612 -20.5945
lfingers 7.12502
lthumb -1.63817 9.379
rfemur -46.3351 5.00507 24.2523
rtibia 59.9474
rfoot -14.8925 -4.53446
rtoes -18.2903
lfemur -37.2031 20.1435 -2.44628
ltibia 131.997
lfoot -0.0572669 -23.568
ltoes -12.5837
